<svg width="600" height="400" viewBox="0 0 600 400" xmlns="http://www.w3.org/2000/svg">
  <!-- Background -->
  <rect width="600" height="400" fill="#f8fafc"/>
  
  <!-- Dashboard layout -->
  <rect x="50" y="40" width="500" height="320" rx="12" fill="white" stroke="#e2e8f0" stroke-width="2"/>
  
  <!-- Sidebar -->
  <rect x="50" y="40" width="120" height="320" rx="12" fill="#1e293b"/>
  <rect x="50" y="90" width="120" height="270" fill="#1e293b"/>
  
  <!-- Sidebar items -->
  <rect x="60" y="60" width="100" height="20" rx="4" fill="#3b82f6"/>
  <text x="110" y="73" text-anchor="middle" font-family="system-ui" font-size="10" font-weight="600" fill="white">Dashboard</text>
  
  <text x="110" y="100" text-anchor="middle" font-family="system-ui" font-size="10" fill="#94a3b8">Users</text>
  <text x="110" y="120" text-anchor="middle" font-family="system-ui" font-size="10" fill="#94a3b8">Orders</text>
  <text x="110" y="140" text-anchor="middle" font-family="system-ui" font-size="10" fill="#94a3b8">Analytics</text>
  <text x="110" y="160" text-anchor="middle" font-family="system-ui" font-size="10" fill="#94a3b8">Settings</text>
  
  <!-- Main content area -->
  <rect x="180" y="50" width="360" height="300" fill="#fafafa"/>
  
  <!-- KPI Cards -->
  <rect x="190" y="70" width="100" height="60" rx="6" fill="white" stroke="#e5e7eb"/>
  <text x="240" y="88" text-anchor="middle" font-family="system-ui" font-size="18" font-weight="700" fill="#10b981">1,247</text>
  <text x="240" y="105" text-anchor="middle" font-family="system-ui" font-size="10" fill="#64748b">Active Users</text>
  <text x="240" y="118" text-anchor="middle" font-family="system-ui" font-size="9" fill="#10b981">+12% vs last month</text>
  
  <rect x="300" y="70" width="100" height="60" rx="6" fill="white" stroke="#e5e7eb"/>
  <text x="350" y="88" text-anchor="middle" font-family="system-ui" font-size="18" font-weight="700" fill="#3b82f6">$24.8K</text>
  <text x="350" y="105" text-anchor="middle" font-family="system-ui" font-size="10" fill="#64748b">Revenue</text>
  <text x="350" y="118" text-anchor="middle" font-family="system-ui" font-size="9" fill="#3b82f6">+8% vs last month</text>
  
  <rect x="410" y="70" width="100" height="60" rx="6" fill="white" stroke="#e5e7eb"/>
  <text x="460" y="88" text-anchor="middle" font-family="system-ui" font-size="18" font-weight="700" fill="#f59e0b">892</text>
  <text x="460" y="105" text-anchor="middle" font-family="system-ui" font-size="10" fill="#64748b">New Orders</text>
  <text x="460" y="118" text-anchor="middle" font-family="system-ui" font-size="9" fill="#f59e0b">+5% vs last month</text>
  
  <!-- Chart area -->
  <rect x="190" y="150" width="320" height="120" rx="6" fill="white" stroke="#e5e7eb"/>
  <text x="350" y="170" text-anchor="middle" font-family="system-ui" font-size="14" font-weight="600" fill="#1e293b">Sales Analytics</text>
  
  <!-- Simple line chart -->
  <path d="M210,240 Q250,220 290,230 T370,210 T450,225 T490,215" stroke="#3b82f6" stroke-width="3" fill="none"/>
  <circle cx="210" cy="240" r="3" fill="#3b82f6"/>
  <circle cx="290" cy="230" r="3" fill="#3b82f6"/>
  <circle cx="370" cy="210" r="3" fill="#3b82f6"/>
  <circle cx="450" cy="225" r="3" fill="#3b82f6"/>
  <circle cx="490" cy="215" r="3" fill="#3b82f6"/>
  
  <!-- Recent activity -->
  <rect x="190" y="285" width="320" height="70" rx="6" fill="white" stroke="#e5e7eb"/>
  <text x="350" y="305" text-anchor="middle" font-family="system-ui" font-size="14" font-weight="600" fill="#1e293b">Recent Activity</text>
  <text x="200" y="325" font-family="system-ui" font-size="10" fill="#64748b">• New user registration: john.doe@email.com</text>
  <text x="200" y="340" font-family="system-ui" font-size="10" fill="#64748b">• Order #1247 completed successfully</text>
  
  <!-- Title -->
  <text x="300" y="385" text-anchor="middle" font-family="system-ui" font-size="18" font-weight="600" fill="#1e293b">Admin Dashboard</text>
</svg> 