<svg width="600" height="400" viewBox="0 0 600 400" xmlns="http://www.w3.org/2000/svg">
  <defs>
    <filter id="blur">
      <feGaussianBlur in="SourceGraphic" stdDeviation="4"/>
    </filter>
  </defs>
  
  <!-- Background -->
  <rect width="600" height="400" fill="#f8fafc"/>
  
  <!-- Before/After panels -->
  <rect x="50" y="80" width="200" height="240" rx="8" fill="#e2e8f0" stroke="#cbd5e1"/>
  <rect x="350" y="80" width="200" height="240" rx="8" fill="#e2e8f0" stroke="#cbd5e1"/>
  
  <!-- Blurred image (left) -->
  <g filter="url(#blur)">
    <rect x="70" y="100" width="160" height="120" fill="#3b82f6" opacity="0.6"/>
    <circle cx="120" cy="140" r="20" fill="#10b981"/>
    <circle cx="180" cy="180" r="25" fill="#f59e0b"/>
    <rect x="90" y="200" width="140" height="80" fill="#8b5cf6" opacity="0.7"/>
  </g>
  
  <!-- Sharp image (right) -->
  <rect x="370" y="100" width="160" height="120" fill="#3b82f6"/>
  <circle cx="420" cy="140" r="20" fill="#10b981"/>
  <circle cx="480" cy="180" r="25" fill="#f59e0b"/>
  <rect x="390" y="200" width="140" height="80" fill="#8b5cf6"/>
  
  <!-- Labels -->
  <text x="150" y="350" text-anchor="middle" font-family="system-ui" font-size="14" font-weight="600" fill="#64748b">Blurred Input</text>
  <text x="450" y="350" text-anchor="middle" font-family="system-ui" font-size="14" font-weight="600" fill="#64748b">Deblurred Output</text>
  
  <!-- Arrow -->
  <path d="M270,200 L330,200" stroke="#10b981" stroke-width="3" fill="none" marker-end="url(#arrowhead)"/>
  
  <!-- Arrow marker -->
  <defs>
    <marker id="arrowhead" markerWidth="10" markerHeight="7" refX="9" refY="3.5" orient="auto">
      <polygon points="0 0, 10 3.5, 0 7" fill="#10b981"/>
    </marker>
  </defs>
  
  <!-- U-Net indicator -->
  <text x="300" y="190" text-anchor="middle" font-family="system-ui" font-size="12" font-weight="600" fill="#10b981">U-Net</text>
  
  <!-- Title -->
  <text x="300" y="40" text-anchor="middle" font-family="system-ui" font-size="18" font-weight="600" fill="#1e293b">Image Deblurring</text>
</svg> 