<svg width="600" height="400" viewBox="0 0 600 400" xmlns="http://www.w3.org/2000/svg">
  <!-- Background -->
  <rect width="600" height="400" fill="#f8fafc"/>
  
  <!-- Dashboard interface -->
  <rect x="50" y="60" width="500" height="280" rx="12" fill="white" stroke="#e2e8f0" stroke-width="2"/>
  
  <!-- Header -->
  <rect x="50" y="60" width="500" height="50" rx="12" fill="#1e293b"/>
  <rect x="50" y="85" width="500" height="25" fill="#1e293b"/>
  <text x="300" y="88" text-anchor="middle" font-family="system-ui" font-size="16" font-weight="600" fill="white">Tech Mock API Dashboard</text>
  
  <!-- API endpoint cards -->
  <rect x="80" y="140" width="140" height="80" rx="8" fill="#f1f5f9" stroke="#cbd5e1"/>
  <rect x="85" y="145" width="130" height="25" rx="4" fill="#10b981"/>
  <text x="150" y="160" text-anchor="middle" font-family="system-ui" font-size="12" font-weight="600" fill="white">GET /api/users</text>
  <text x="150" y="180" text-anchor="middle" font-family="system-ui" font-size="10" fill="#64748b">Response time: 45ms</text>
  <text x="150" y="195" text-anchor="middle" font-family="system-ui" font-size="10" fill="#64748b">Status: Active</text>
  <text x="150" y="210" text-anchor="middle" font-family="system-ui" font-size="10" fill="#64748b">Requests: 1,247</text>
  
  <rect x="240" y="140" width="140" height="80" rx="8" fill="#f1f5f9" stroke="#cbd5e1"/>
  <rect x="245" y="145" width="130" height="25" rx="4" fill="#3b82f6"/>
  <text x="310" y="160" text-anchor="middle" font-family="system-ui" font-size="12" font-weight="600" fill="white">POST /api/orders</text>
  <text x="310" y="180" text-anchor="middle" font-family="system-ui" font-size="10" fill="#64748b">Response time: 38ms</text>
  <text x="310" y="195" text-anchor="middle" font-family="system-ui" font-size="10" fill="#64748b">Status: Active</text>
  <text x="310" y="210" text-anchor="middle" font-family="system-ui" font-size="10" fill="#64748b">Requests: 892</text>
  
  <rect x="400" y="140" width="140" height="80" rx="8" fill="#f1f5f9" stroke="#cbd5e1"/>
  <rect x="405" y="145" width="130" height="25" rx="4" fill="#f59e0b"/>
  <text x="470" y="160" text-anchor="middle" font-family="system-ui" font-size="12" font-weight="600" fill="white">PUT /api/products</text>
  <text x="470" y="180" text-anchor="middle" font-family="system-ui" font-size="10" fill="#64748b">Response time: 52ms</text>
  <text x="470" y="195" text-anchor="middle" font-family="system-ui" font-size="10" fill="#64748b">Status: Active</text>
  <text x="470" y="210" text-anchor="middle" font-family="system-ui" font-size="10" fill="#64748b">Requests: 634</text>
  
  <!-- Performance metrics -->
  <rect x="80" y="240" width="460" height="80" rx="8" fill="#f8fafc" stroke="#e2e8f0"/>
  <text x="310" y="260" text-anchor="middle" font-family="system-ui" font-size="14" font-weight="600" fill="#1e293b">Performance Metrics</text>
  
  <!-- Simple bar chart -->
  <rect x="120" y="275" width="60" height="30" fill="#10b981" opacity="0.8"/>
  <rect x="200" y="285" width="60" height="20" fill="#3b82f6" opacity="0.8"/>
  <rect x="280" y="290" width="60" height="15" fill="#f59e0b" opacity="0.8"/>
  <rect x="360" y="280" width="60" height="25" fill="#ef4444" opacity="0.8"/>
  
  <text x="310" y="365" text-anchor="middle" font-family="system-ui" font-size="18" font-weight="600" fill="#1e293b">Tech Mock API</text>
</svg> 